<svg id="adviye" xmlns="http://www.w3.org/2000/svg" width="61.463" height="61.463" viewBox="0 0 61.463 61.463">
  <path id="Path_66" data-name="Path 66" d="M76.928,183.823C69.8,183.823,64,176.685,64,167.912S69.8,152,76.928,152s12.928,7.139,12.928,15.912S84.056,183.823,76.928,183.823Zm0,0" transform="translate(-56.044 -133.228)" fill="#ffb29a"/>
  <path id="Path_67" data-name="Path 67" d="M288,96h1.989v1.989H288Zm0,0" transform="translate(-252.315 -84.105)" fill="#455a64"/>
  <path id="Path_68" data-name="Path 68" d="M256,96h1.989v1.989H256Zm0,0" transform="translate(-224.28 -84.105)" fill="#455a64"/>
  <path id="Path_69" data-name="Path 69" d="M32,96H43.934v1.989H32Zm0,0" transform="translate(-28.022 -84.105)" fill="#455a64"/>
  <path id="Path_70" data-name="Path 70" d="M32,128H43.934v1.989H32Zm0,0" transform="translate(-28.022 -112.14)" fill="#455a64"/>
  <path id="Path_71" data-name="Path 71" d="M139.978,191.956a3.982,3.982,0,0,0,3.978-3.978h-1.989a1.989,1.989,0,1,1-.506-1.326l1.482-1.327a3.978,3.978,0,1,0-2.964,6.63Zm0,0" transform="translate(-119.155 -161.21)" fill="#455a64"/>
  <path id="Path_72" data-name="Path 72" d="M103.956,251.978a3.978,3.978,0,0,0-6.942-2.652l1.481,1.327a1.989,1.989,0,1,1-.506,1.326H96a3.978,3.978,0,1,0,7.956,0Zm0,0" transform="translate(-84.109 -217.283)" fill="#455a64"/>
  <path id="Path_73" data-name="Path 73" d="M179.978,253.967a1.989,1.989,0,1,1,1.483-3.315l1.482-1.327a3.978,3.978,0,1,0,1.013,2.652h-1.989A1.991,1.991,0,0,1,179.978,253.967Zm0,0" transform="translate(-154.201 -217.283)" fill="#455a64"/>
  <path id="Path_74" data-name="Path 74" d="M139.978,317.967a1.989,1.989,0,1,1,1.483-3.315l1.482-1.327a3.978,3.978,0,1,0,1.013,2.652h-1.989A1.991,1.991,0,0,1,139.978,317.967Zm0,0" transform="translate(-119.155 -273.356)" fill="#455a64"/>
  <path id="Path_75" data-name="Path 75" d="M292.334,433.989a10.748,10.748,0,0,1-6.195-1.953l-1.14,1.63a12.725,12.725,0,0,0,7.334,2.312A3.982,3.982,0,0,0,296.312,432h-1.989A1.991,1.991,0,0,1,292.334,433.989Zm0,0" transform="translate(-249.708 -378.492)" fill="#455a64"/>
  <path id="Path_76" data-name="Path 76" d="M58.442,43.947l-4.909-7.014-4.909,7.013a16.709,16.709,0,0,0-1.646,2.962A7.877,7.877,0,0,0,42.628,45.6c-.332,0-.662.018-.991.038V2.974A2.978,2.978,0,0,0,38.662,0H33.775A2.967,2.967,0,0,0,31.3,1.324l-.569.853-.569-.853A2.967,2.967,0,0,0,27.688,0H2.974A2.978,2.978,0,0,0,0,2.974V50.559a4.963,4.963,0,0,0,4.957,4.957h23.9l4.182,2.927a16.635,16.635,0,0,0,9.585,3.021,7.9,7.9,0,0,0,5.454-2.188,7.917,7.917,0,0,0,13.381-5.743A16.635,16.635,0,0,0,58.442,43.947ZM4.957,53.533a2.978,2.978,0,0,1-2.974-2.974V9.913H5.948V7.931H1.983V2.974a.992.992,0,0,1,.991-.991H27.688a.989.989,0,0,1,.825.441l2.218,3.329L32.95,2.425a.988.988,0,0,1,.825-.442h4.888a.992.992,0,0,1,.991.991V7.931H7.931V9.913H39.654V45.876a16.634,16.634,0,0,0-6.611,2.747l-7.014,4.909Zm37.671,5.948a14.658,14.658,0,0,1-8.448-2.664l-4.693-3.284,4.692-3.284a14.663,14.663,0,0,1,8.449-2.664,5.948,5.948,0,0,1,0,11.9Zm10.9,0a5.948,5.948,0,0,1-4.192-1.745,7.874,7.874,0,0,0-.782-9.452,14.774,14.774,0,0,1,1.69-3.2l3.284-4.693,3.284,4.692a14.663,14.663,0,0,1,2.664,8.449A5.954,5.954,0,0,1,53.533,59.481Zm0,0" fill="#455a64"/>
  <path id="Path_77" data-name="Path 77" d="M427.071,363.215l-1.63,1.14.85,1.216a10.742,10.742,0,0,1,1.954,6.195,1.991,1.991,0,0,1-1.989,1.989v1.989a3.982,3.982,0,0,0,3.978-3.978,12.726,12.726,0,0,0-2.312-7.334Zm0,0" transform="translate(-372.749 -318.258)" fill="#455a64"/>
</svg>
