<svg id="food-and-restaurant_1_" data-name="food-and-restaurant (1)" xmlns="http://www.w3.org/2000/svg" width="61.463" height="65.305" viewBox="0 0 61.463 65.305">
  <path id="Path_28" data-name="Path 28" d="M28.9,327.125a11.269,11.269,0,0,1-.81-4.2V320H25.967v2.921a13.405,13.405,0,0,0,.961,4.993l.351.878a11.268,11.268,0,0,1,.81,4.2,11.39,11.39,0,0,1-1.195,5.061l-1.583,3.166H22.645l1.612-2.418a10.167,10.167,0,0,0,1.71-5.651,10.318,10.318,0,0,0-.136-1.652l-2.1.342a8.036,8.036,0,0,1-1.245,5.785l-2.4,3.594H10.618l-2.4-3.594a8.069,8.069,0,0,1-.94-7.025,33.245,33.245,0,0,0,1.708-10.528V320l-2.122.075a31.093,31.093,0,0,1-1.6,9.857,10.195,10.195,0,0,0,1.188,8.873l1.612,2.417H5.4l-1.583-3.166A11.39,11.39,0,0,1,2.622,333a11.273,11.273,0,0,1,.809-4.2l.353-.88a13.42,13.42,0,0,0,.96-4.993V320H2.622v2.921a11.274,11.274,0,0,1-.809,4.2L1.46,328a13.45,13.45,0,0,0,.459,11l2.17,4.339H26.623l2.17-4.34a13.442,13.442,0,0,0,.458-11Zm0,0" transform="translate(-0.5 -278.04)" fill="#455a64"/>
  <path id="Path_29" data-name="Path 29" d="M60.855,168.668l-1.5-1.5a9.679,9.679,0,0,0-2.854,6.891v.647h2.122v-.647A7.573,7.573,0,0,1,60.855,168.668Zm0,0" transform="translate(-49.072 -145.179)" fill="#455a64"/>
  <path id="Path_30" data-name="Path 30" d="M140.023,174.706v-.647a9.678,9.678,0,0,0-2.854-6.891l-1.5,1.5a7.573,7.573,0,0,1,2.233,5.391v.647Zm0,0" transform="translate(-117.765 -145.179)" fill="#455a64"/>
  <path id="Path_31" data-name="Path 31" d="M164.022,329.238a31.223,31.223,0,0,1-1.4-9.238l-2.122.075a33.279,33.279,0,0,0,1.493,9.787Zm0,0" transform="translate(-139.307 -277.923)" fill="#455a64"/>
  <path id="Path_32" data-name="Path 32" d="M20.957,22.707l1.272-1.7a13.874,13.874,0,0,0,2.76-8.277V10.611h8.489v2.122a13.874,13.874,0,0,0,2.76,8.277l1.272,1.7a11.738,11.738,0,0,1,2.335,7h2.122a13.874,13.874,0,0,0-2.76-8.277l-1.272-1.7a11.738,11.738,0,0,1-2.335-7V10.611A3.176,3.176,0,0,0,36.661,4.44V2.122A2.124,2.124,0,0,0,34.539,0H23.928a2.124,2.124,0,0,0-2.122,2.122V4.44a3.176,3.176,0,0,0,1.061,6.171v2.122a11.743,11.743,0,0,1-2.335,7l-1.272,1.7a13.874,13.874,0,0,0-2.76,8.277h2.122A11.743,11.743,0,0,1,20.957,22.707ZM34.539,4.244H32.417V2.122h2.122Zm-6.367,0V2.122h2.122V4.244ZM26.05,2.122V4.244H23.928V2.122ZM21.806,7.428a1.063,1.063,0,0,1,1.061-1.061H35.6a1.061,1.061,0,1,1,0,2.122H22.867A1.063,1.063,0,0,1,21.806,7.428Zm0,0" transform="translate(-14.378)" fill="#455a64"/>
  <path id="Path_33" data-name="Path 33" d="M276.089,164.733V154.122A2.122,2.122,0,0,0,273.967,152H250.622a2.122,2.122,0,0,0-2.122,2.122v10.611a2.122,2.122,0,0,0,2.122,2.122,2.122,2.122,0,0,0-2.122,2.122v10.611a2.122,2.122,0,0,0,2.122,2.122,2.122,2.122,0,0,0-2.122,2.122v10.611a2.122,2.122,0,0,0,2.122,2.122h23.345a2.122,2.122,0,0,0,2.122-2.122V183.834a2.122,2.122,0,0,0-2.122-2.122,2.122,2.122,0,0,0,2.122-2.122V168.978a2.122,2.122,0,0,0-2.122-2.122A2.122,2.122,0,0,0,276.089,164.733Zm0,0" transform="translate(-215.687 -132.323)" fill="#b5e0ea"/>
  <path id="Path_34" data-name="Path 34" d="M33.967,230.856H10.622A2.124,2.124,0,0,1,8.5,228.733V218.122A2.124,2.124,0,0,1,10.622,216H33.967a2.124,2.124,0,0,1,2.122,2.122v10.611A2.124,2.124,0,0,1,33.967,230.856Zm0,0" transform="translate(-7.439 -187.622)" fill="#b5e0ea"/>
  <path id="Path_35" data-name="Path 35" d="M40.5,248H59.6v2.122H40.5Zm0,0" transform="translate(-35.194 -215.356)" fill="#455a64"/>
  <path id="Path_36" data-name="Path 36" d="M40.5,280H59.6v2.122H40.5Zm0,0" transform="translate(-35.194 -243.143)" fill="#455a64"/>
  <path id="Path_37" data-name="Path 37" d="M270.211,22.119a3.165,3.165,0,0,0-2.64-3.105l-4.788-5.7V8.426a2.117,2.117,0,0,0,2.122-2.107V2.107A2.117,2.117,0,0,0,262.784,0H247.928a2.117,2.117,0,0,0-2.122,2.107V6.32a2.117,2.117,0,0,0,2.122,2.107v4.885l-4.788,5.7a3.165,3.165,0,0,0-2.64,3.105V32.652a3.132,3.132,0,0,0,.813,2.107,3.132,3.132,0,0,0-.813,2.107V47.4a3.132,3.132,0,0,0,.813,2.107,3.132,3.132,0,0,0-.813,2.107V62.145a3.176,3.176,0,0,0,3.183,3.16h23.345a3.176,3.176,0,0,0,3.183-3.16V51.612a3.132,3.132,0,0,0-.813-2.107,3.132,3.132,0,0,0,.813-2.107V36.866a3.132,3.132,0,0,0-.813-2.107,3.132,3.132,0,0,0,.813-2.107ZM252.172,6.32V2.107h2.122V6.32Zm4.245-4.213h2.122V6.32h-2.122Zm6.368,4.213h-2.123V2.107h2.122ZM247.928,2.107h2.122V6.32h-2.122Zm12.733,6.32V12.64H250.05V8.426ZM267.028,63.2H243.683a1.059,1.059,0,0,1-1.061-1.053v-6.32h20.161V53.719H242.622V51.612a1.059,1.059,0,0,1,1.061-1.053h16.978V48.452H243.683a1.059,1.059,0,0,1-1.061-1.053v-6.32h20.161V38.972H242.622V36.866a1.059,1.059,0,0,1,1.061-1.053h16.978V33.706H243.683a1.059,1.059,0,0,1-1.061-1.053v-6.32h20.161V24.226H242.622V22.119a1.059,1.059,0,0,1,1.061-1.053h16.978V18.959H245.949l3.537-4.213h11.739l3.537,4.213h-1.978v2.107h4.245a1.059,1.059,0,0,1,1.061,1.053v6.32H247.928v2.107h20.161v2.107a1.059,1.059,0,0,1-1.061,1.053h-4.245v2.107h4.245a1.059,1.059,0,0,1,1.061,1.053v6.32H247.928v2.107h20.161V47.4a1.059,1.059,0,0,1-1.061,1.053h-4.245v2.107h4.245a1.059,1.059,0,0,1,1.061,1.053v6.32H247.928v2.107h20.161v2.107A1.059,1.059,0,0,1,267.028,63.2Zm0,0" transform="translate(-208.748)" fill="#455a64"/>
</svg>
