<svg id="water" xmlns="http://www.w3.org/2000/svg" width="69.146" height="76.466" viewBox="0 0 69.146 76.466">
  <path id="Path_10" data-name="Path 10" d="M34.044,106.9l-2.672-5.341A3.728,3.728,0,0,1,30.98,99.9V94.87a2.481,2.481,0,0,0,2.478-2.478V88.674A8.686,8.686,0,0,0,24.784,80v2.478a6.2,6.2,0,0,1,6.2,6.2v3.718H11.153V94.87H28.5V99.9a6.257,6.257,0,0,0,.653,2.771l2.3,4.595H26.023v2.478h6.2v28.5a3.722,3.722,0,0,1-3.718,3.718H6.2a3.722,3.722,0,0,1-3.718-3.718v-28.5H23.544v-2.478H3.244l2.3-4.6A6.248,6.248,0,0,0,6.2,99.9V94.87H8.674V92.392H3.718V88.674a6.2,6.2,0,0,1,6.2-6.2V80a8.686,8.686,0,0,0-8.674,8.674v3.718A2.481,2.481,0,0,0,3.718,94.87V99.9a3.739,3.739,0,0,1-.391,1.663L.654,106.9A6.224,6.224,0,0,0,0,109.671v28.571a6.2,6.2,0,0,0,6.2,6.2H28.5a6.2,6.2,0,0,0,6.2-6.2V109.671A6.257,6.257,0,0,0,34.044,106.9Zm0,0" transform="translate(0 -67.971)" fill="#455a64"/>
  <path id="Path_11" data-name="Path 11" d="M281.807,315.681l-1.19,18.934a4.952,4.952,0,0,1-4.944,4.647H260.208a4.952,4.952,0,0,1-4.944-4.647L254,314.5l.31-.025A19.069,19.069,0,0,1,264.223,312C270.085,312,275.946,315.333,281.807,315.681Zm0,0" transform="translate(-214.984 -264.035)" fill="#ffdac1"/>
  <path id="Path_12" data-name="Path 12" d="M62.305,8.674H59.827v-6.2H42.478v6.2H40v-6.2A2.481,2.481,0,0,1,42.478,0H59.827a2.481,2.481,0,0,1,2.478,2.478Zm0,0" transform="translate(-33.804)" fill="#455a64"/>
  <path id="Path_13" data-name="Path 13" d="M44.392,320.784a12.392,12.392,0,1,1,12.392-12.392A12.406,12.406,0,0,1,44.392,320.784Zm0,0" transform="translate(-27.043 -250.513)" fill="#ffdac1"/>
  <path id="Path_15" data-name="Path 15" d="M42.023,55.435H19.718a3.718,3.718,0,1,1,0-7.435H42.023a3.718,3.718,0,0,1,0,7.435Zm0,0" transform="translate(-13.522 -40.565)" fill="#ffdac1"/>
  <path id="Path_16" data-name="Path 16" d="M263.412,266.132h-15.47a6.206,6.206,0,0,1-6.183-5.809L239.488,224h32.378l-2.27,36.323A6.208,6.208,0,0,1,263.412,266.132Zm-21.287-39.654,2.106,33.691a3.725,3.725,0,0,0,3.711,3.485h15.47a3.723,3.723,0,0,0,3.71-3.485l2.107-33.691Zm0,0" transform="translate(-202.72 -189.666)" fill="#455a64"/>
  <path id="Path_17" data-name="Path 17" d="M385.922,320.307l1.552-24.784,2.474.155L388.4,320.462Zm0,0" transform="translate(-326.472 -250.111)" fill="#455a64"/>
  <path id="Path_18" data-name="Path 18" d="M396.941,265.994l.155-2.478,2.474.155-.156,2.478Zm0,0" transform="translate(-335.784 -222.897)" fill="#455a64"/>
</svg>
