<svg id="food-and-restaurant" xmlns="http://www.w3.org/2000/svg" width="61.463" height="61.464" viewBox="0 0 61.463 61.464">
  <g id="Group_15" data-name="Group 15" transform="translate(35.654)">
    <path id="Path_19" data-name="Path 19" d="M54.437,13.469A7.934,7.934,0,0,0,47.919,1H45.934a7.934,7.934,0,0,0-6.518,12.469A6.425,6.425,0,0,0,37,18.868c0,2.071,1.407,3.411,2.9,4.828a12.137,12.137,0,0,1,3.5,4.7h7.069a12.147,12.147,0,0,1,3.5-4.7c1.49-1.418,2.9-2.758,2.9-4.828a6.425,6.425,0,0,0-2.416-5.4Z" transform="translate(-37 -1)" fill="#eab5bc"/>
  </g>
  <g id="Group_17" data-name="Group 17" transform="translate(5.964 35.653)">
    <g id="Group_16" data-name="Group 16" transform="translate(0)">
      <path id="Path_20" data-name="Path 20" d="M7.007,56.846l.687-11.011A9.425,9.425,0,0,1,17.1,37h.328a9.435,9.435,0,0,1,9.424,9.424v.328a9.424,9.424,0,0,1-8.837,9.408Z" transform="translate(-7.007 -37)" fill="#eab5bc"/>
    </g>
  </g>
  <g id="Group_18" data-name="Group 18" transform="translate(0 4.032)">
    <path id="Path_21" data-name="Path 21" d="M62.462,22.843a6.415,6.415,0,0,0-2.413-5.391A7.909,7.909,0,0,0,54.494,5.074a7.89,7.89,0,0,1,.843,2.2,5.926,5.926,0,0,1,2.525,9.733l-.9.955,1.164.6a4.376,4.376,0,0,1,2.354,4.277c0,1.084-1.742,2.139-3.586,3.256A30.8,30.8,0,0,0,53.3,28.537a13.883,13.883,0,0,0-5.84-1.685c-.425-2.359-1.4-10,2.814-14.213l-1.4-1.4a11.46,11.46,0,0,0-2.094,2.906,25.178,25.178,0,0,0-3.371-5.8L41.862,9.584c.036.043,3.448,4.353,3.725,7.871a24.865,24.865,0,0,0-.14,9.408,13.725,13.725,0,0,0-5.984,1.924,26.3,26.3,0,0,0-3.547-2.672c-1.76-1.161-3.28-2.165-3.28-3.273a4.372,4.372,0,0,1,2.354-4.275l1.166-.606-.9-.955a5.929,5.929,0,0,1,2.619-9.765,7.848,7.848,0,0,1,.842-2.18,7.91,7.91,0,0,0-5.649,12.389,6.42,6.42,0,0,0-2.413,5.391c0,2.175,2.025,3.513,4.171,4.928A27.122,27.122,0,0,1,37.8,29.942a13.888,13.888,0,0,0-4.032,5.434l-.637-.638,1.983-1.982L30.74,28.38l-1.983,1.982-3.081-3.081-4.521,6.03a13.313,13.313,0,0,0-3.792-.555h-.327A13.378,13.378,0,0,0,3.684,45.3l-.481,7.7a13.417,13.417,0,0,1-1.878,6.041A2.284,2.284,0,0,0,4.46,62.168,13.432,13.432,0,0,1,10.5,60.291l7.7-.481A13.376,13.376,0,0,0,30.74,46.458v-.327a13.344,13.344,0,0,0-.555-3.791l2.549-1.911c0,.073-.011.144-.011.216a13.8,13.8,0,0,0,3.637,9.35l5.435,5.93a11.235,11.235,0,0,1,2.613,4.856,2.26,2.26,0,0,0,4.386,0,11.231,11.231,0,0,1,2.613-4.855l5.435-5.93a13.794,13.794,0,0,0-1.807-20.313,33.907,33.907,0,0,1,2.886-1.886c2.335-1.415,4.541-2.751,4.541-4.952Zm-30.15,9.912L27.566,37.5a13.533,13.533,0,0,0-1.572-1.572l4.746-4.746ZM25.89,30.3l1.465,1.465-2.992,2.992a13.369,13.369,0,0,0-1.29-.7Zm2.867,16.159A11.394,11.394,0,0,1,18.074,57.83l-7.7.481a15.418,15.418,0,0,0-6.937,2.156.3.3,0,0,1-.413-.413,15.415,15.415,0,0,0,2.156-6.937l.481-7.7A11.395,11.395,0,0,1,17.036,34.738h.327A11.406,11.406,0,0,1,28.757,46.131Zm.684-6.038a13.367,13.367,0,0,0-.7-1.29l2.992-2.992L33.1,37.5c-.017.073-.041.145-.057.219Zm28.35,4.23H48.584v1.982h8.28a11.862,11.862,0,0,1-1.483,2.022l-5.435,5.93A13.247,13.247,0,0,0,46.871,60.3a.29.29,0,0,1-.54,0,13.223,13.223,0,0,0-3.074-5.715l-5.435-5.93a11.817,11.817,0,0,1-3.068-6.978h8.874V39.694H34.754a11.889,11.889,0,0,1,20.711-6.939H47.592v1.982H56.9a11.74,11.74,0,0,1,.886,9.912Z" transform="translate(-0.999 -5.062)" fill="#455a64"/>
    <path id="Path_22" data-name="Path 22" d="M39.481,43.728l-1.861.69A9.826,9.826,0,0,0,39.6,47.66l3.618,3.948,1.464-1.342-3.618-3.948A7.863,7.863,0,0,1,39.481,43.728Z" transform="translate(-1.323 -5.41)" fill="#455a64"/>
    <path id="Path_23" data-name="Path 23" d="M45.1,53.661a14.868,14.868,0,0,1,1.081,1.324l1.607-1.167a17.237,17.237,0,0,0-1.226-1.5Z" transform="translate(-1.384 -5.492)" fill="#455a64"/>
    <path id="Path_24" data-name="Path 24" d="M0,0H1.985V2.22H0Z" transform="translate(13.415 36.508) rotate(-63.435)" fill="#455a64"/>
    <path id="Path_25" data-name="Path 25" d="M0,0H2.22V1.985H0Z" transform="translate(16.392 40.667) rotate(-26.565)" fill="#455a64"/>
    <path id="Path_26" data-name="Path 26" d="M0,0H1.985V2.22H0Z" transform="translate(10.003 43.976) rotate(-26.565)" fill="#455a64"/>
    <path id="Path_27" data-name="Path 27" d="M0,0H1.985V2.22H0Z" transform="translate(15.393 46.418) rotate(-63.435)" fill="#455a64"/>
  </g>
</svg>
