<svg id="dinner" xmlns="http://www.w3.org/2000/svg" width="61.463" height="72.937" viewBox="0 0 61.463 72.937">
  <path id="Path_41" data-name="Path 41" d="M149.043,82.53h-1.417l-.87-4.874H134.271l-.87,4.874h-1.417a3.656,3.656,0,1,0,0,7.311h2.437V93.5h2.437V89.841h7.311V93.5h2.437V89.841h2.437a3.656,3.656,0,1,0,0-7.311ZM136.31,80.093h8.406l.435,2.437h-9.276ZM149.043,87.4H131.984a1.219,1.219,0,0,1,0-2.437h17.059a1.219,1.219,0,1,1,0,2.437Zm0,0" transform="translate(-109.782 -66.277)" fill="#455a64"/>
  <path id="Path_42" data-name="Path 42" d="M51.4,173.656c-14.931,0-27.076,12.571-27.076,28.026v4.874H78.48v-4.874C78.48,186.228,66.335,173.656,51.4,173.656Zm0,0" transform="translate(-20.673 -148.616)" fill="#b2e0ff"/>
  <path id="Path_43" data-name="Path 43" d="M4.341,86.438,2.408,84.505a7.1,7.1,0,0,1,0-10.043l.209-.209a4.635,4.635,0,0,0,1.366-3.3,4.635,4.635,0,0,0-1.366-3.3L.685,65.723,2.408,64l1.932,1.933a7.051,7.051,0,0,1,2.08,5.022,7.052,7.052,0,0,1-2.08,5.022l-.209.209a4.665,4.665,0,0,0,0,6.6l1.932,1.933Zm0,0" transform="translate(-0.328 -54.252)" fill="#455a64"/>
  <path id="Path_44" data-name="Path 44" d="M66.408,22.438l-1.723-1.723,1.932-1.932a4.665,4.665,0,0,0,0-6.6l-.209-.209a7.1,7.1,0,0,1,0-10.043L68.341,0l1.723,1.723L68.131,3.656a4.665,4.665,0,0,0,0,6.6l.209.209a7.1,7.1,0,0,1,0,10.043Zm0,0" transform="translate(-54.903)" fill="#455a64"/>
  <path id="Path_45" data-name="Path 45" d="M378.408,86.438l-1.723-1.723,1.933-1.933a4.666,4.666,0,0,0,0-6.6l-.21-.209a7.1,7.1,0,0,1,0-10.043L380.341,64l1.723,1.723-1.932,1.932a4.665,4.665,0,0,0,0,6.6l.209.209a7.1,7.1,0,0,1,0,10.043Zm0,0" transform="translate(-320.957 -54.252)" fill="#455a64"/>
  <path id="Path_46" data-name="Path 46" d="M316.341,22.438l-1.933-1.932a7.1,7.1,0,0,1,0-10.043l.209-.209a4.666,4.666,0,0,0,0-6.6l-1.932-1.932L314.408,0l1.933,1.932a7.1,7.1,0,0,1,0,10.043l-.209.209a4.666,4.666,0,0,0,0,6.6l1.932,1.932Zm0,0" transform="translate(-266.382)" fill="#455a64"/>
  <path id="Path_47" data-name="Path 47" d="M55.367,252.808,53.61,242.132a5.93,5.93,0,0,0-5.373-5.122,3.734,3.734,0,0,0,.23-1.261,3.6,3.6,0,0,0-3.542-3.656H37.841a3.442,3.442,0,0,0-1.989.634,5.854,5.854,0,0,0-5.094-3.071H27.217v3.656a6.157,6.157,0,0,0,1.211,3.656h-.519a5.933,5.933,0,0,0-5.834,5.165l-.546,3.667a8.453,8.453,0,0,0-6.022,7.009H8.328v1.219a10.858,10.858,0,0,0,9.444,10.895v4.946H57.91v-4.946a10.858,10.858,0,0,0,9.444-10.895v-1.219Zm-3.792-8.484,1.4,8.484H49.428a3.679,3.679,0,0,0,.218-1.219v-4.874A2.419,2.419,0,0,1,51.574,244.324ZM37.841,234.53h7.083a1.219,1.219,0,0,1,0,2.437H37.841a1.219,1.219,0,0,1,0-2.437Zm-8.264-1.218v-1.219h1.181a3.6,3.6,0,0,1,3.542,3.656v1.219H33.119A3.6,3.6,0,0,1,29.578,233.312ZM24.407,242.5a3.561,3.561,0,0,1,3.5-3.1H47.774a3.532,3.532,0,0,1,3.363,2.529,4.834,4.834,0,0,0-3.852,4.782v4.874a1.181,1.181,0,1,1-2.361,0v-1.218H42.563v1.218a3.708,3.708,0,0,0,.217,1.219H40.2V245.5a1.181,1.181,0,1,1,2.361,0v2.437h2.361V245.5a3.543,3.543,0,1,0-7.083,0v2.572a8.11,8.11,0,0,0-5.9-2.572,8.015,8.015,0,0,0-4.121,1.161,8,8,0,0,0-3.857-1.147Zm7.437,10.3a8.614,8.614,0,0,0-2.016-4.455,5.7,5.7,0,0,1,2.111-.419,5.964,5.964,0,0,1,5.783,4.874Zm-8.169-4.874a5.964,5.964,0,0,1,5.783,4.874H17.892A5.964,5.964,0,0,1,23.675,247.934Zm-3.542,19.5v-2.437H55.549v2.437Zm36.6-4.874H18.953a8.366,8.366,0,0,1-8.18-7.311H64.909A8.364,8.364,0,0,1,56.73,262.556Zm0,0" transform="translate(-7.11 -196.93)" fill="#455a64"/>
  <path id="Path_48" data-name="Path 48" d="M311.215,264.593a22.959,22.959,0,0,0-7.139-16.722l-1.686,1.76a20.541,20.541,0,0,1,6.388,14.962Zm0,0" transform="translate(-258.281 -211.572)" fill="#455a64"/>
  <path id="Path_49" data-name="Path 49" d="M280.12,227.728A22.944,22.944,0,0,0,277.547,226l-1.219,2.109a20.927,20.927,0,0,1,2.3,1.545Zm0,0" transform="translate(-235.63 -192.662)" fill="#455a64"/>
</svg>
