<svg id="food-and-restaurant_2_" data-name="food-and-restaurant (2)" xmlns="http://www.w3.org/2000/svg" width="61.472" height="61.472" viewBox="0 0 61.472 61.472">
  <g id="Group_22" data-name="Group 22" transform="translate(24.836 12.889)">
    <path id="Path_38" data-name="Path 38" d="M52.75,14.615a21.149,21.149,0,0,1,2.994,10.827,20.925,20.925,0,0,1-3.708,11.927l-4.382,6.375H34.091l-4.382-6.375a20.837,20.837,0,0,1-3.659-10.45v-.01a1.848,1.848,0,0,0,.644-.149,2.278,2.278,0,0,0,1.14-2.885,2.246,2.246,0,0,0-.466-.754l1.606-3.1a7.754,7.754,0,0,0-1.507-2.31A21.388,21.388,0,0,1,29,14.615L29.371,14h23ZM50.787,27.881,48.8,23.915H44.839l-1.983-3.966H38.89l-1.983,3.966H32.941l-1.983,3.966,1.983,3.966h3.966l1.983,3.966h3.966l1.983-3.966H48.8Z" transform="translate(-26.05 -14)" fill="#fff5c1"/>
  </g>
  <g id="Group_23" data-name="Group 23" transform="translate(0 0)">
    <path id="Path_39" data-name="Path 39" d="M29.882,27.923l2.479,4.957h3.966l1.983,3.966H43.5l1.983-3.966H49.45l2.479-4.957L49.45,22.966H45.484L43.5,19H38.31l-1.983,3.966H32.361Zm12.393,6.94h-2.74l-1.487-2.974,1.487-2.974h2.74l1.487,2.974Zm7.436-6.94L48.224,30.9h-2.74L44,27.923l1.487-2.974h2.74Zm-10.177-6.94h2.74l1.487,2.974-1.487,2.974h-2.74l-1.487-2.974Zm-3.208,3.966,1.487,2.974L36.327,30.9h-2.74L32.1,27.923l1.487-2.974Z" transform="translate(-1.246 -1.153)" fill="#455a64"/>
    <path id="Path_40" data-name="Path 40" d="M59.5,48.591H52.285a6.864,6.864,0,0,0,.878-1.025l4.382-6.375a27.989,27.989,0,0,0,.937-30.258L57.227,8.839A2.973,2.973,0,0,0,59.5,5.957V3.974A2.978,2.978,0,0,0,56.523,1H24.8a2.978,2.978,0,0,0-2.974,2.974V5.957a2.973,2.973,0,0,0,2.27,2.881l-1.256,2.094A28.311,28.311,0,0,0,21.3,13.91a9.838,9.838,0,0,0-3.9.617l-.353.133-1.162,2.215a2.893,2.893,0,0,0-1.1.23A3.268,3.268,0,0,0,13.043,21c-.077.026-.158.04-.233.071a3.249,3.249,0,0,0-1.684,4.111,3.2,3.2,0,0,0,.525.9L10.826,28l.178.4A8.33,8.33,0,0,0,12.6,30.733L5.251,49.1a3.94,3.94,0,0,0,.037,3.036,4.11,4.11,0,0,0,.231.42H3.974a2.974,2.974,0,0,0,0,5.949H7.94a.992.992,0,0,1,.991.991,2.978,2.978,0,0,0,2.974,2.974H54.54a2.974,2.974,0,1,0,0-5.949H45.616a.991.991,0,0,1,0-1.983H59.5a2.974,2.974,0,1,0,0-5.949ZM24.8,6.949a.992.992,0,0,1-.991-.991V3.974a.992.992,0,0,1,.991-.991H56.523a.992.992,0,0,1,.991.991V5.957a.992.992,0,0,1-.991.991H24.8Zm-.26,5,1.812-3.021H54.97l1.812,3.021a26.006,26.006,0,0,1-.871,28.114L51.53,46.442a4.958,4.958,0,0,1-4.085,2.149H33.873a4.957,4.957,0,0,1-4.085-2.149l-4.382-6.375a25.951,25.951,0,0,1-3.259-6.63,10.2,10.2,0,0,0,1.106-.316l.384-.137.662-1.373a2.9,2.9,0,0,0,.587-.178,3.231,3.231,0,0,0,1.767-3.8c.072-.025.149-.039.219-.069a3.271,3.271,0,0,0,1.442-4.635l1.544-2.981-.182-.429a9.306,9.306,0,0,0-6.332-5.3c.365-.771.754-1.532,1.192-2.262ZM13,27.964l.328-.764,8.928,4.085-.045.092C18.593,32.467,14.617,31,13,27.964ZM27.66,19.88l-.88,1.7-8.95-4.14.619-1.179A7.684,7.684,0,0,1,27.66,19.88Zm-12.082-.956a.91.91,0,0,1,.37-.077.931.931,0,0,1,.393.087l9.77,4.521a1.163,1.163,0,0,1,.585.659,1.3,1.3,0,0,1-.609,1.629.92.92,0,0,1-.763-.01l-9.77-4.521a1.163,1.163,0,0,1-.585-.659,1.3,1.3,0,0,1,.61-1.629ZM13.59,22.89a.937.937,0,0,1,.375-.077.949.949,0,0,1,.4.087l9.769,4.47a1.148,1.148,0,0,1,.583.647,1.263,1.263,0,0,1-.606,1.591.935.935,0,0,1-.771-.01l-9.77-4.471a1.143,1.143,0,0,1-.581-.646,1.263,1.263,0,0,1,.6-1.591Zm-6.5,26.947,7.114-17.784a10.082,10.082,0,0,0,3.686,1.463L10.776,51.31A2.018,2.018,0,0,1,8.2,52.415a1.984,1.984,0,0,1-1.105-2.578Zm5.524,2.209,7.336-18.339c.065,0,.131-.006.2-.008a27.917,27.917,0,0,0,3.623,7.492l4.382,6.375a6.923,6.923,0,0,0,.878,1.025H25.787a2.978,2.978,0,0,0-2.974,2.974.992.992,0,0,1-.991.991H12.366a4.059,4.059,0,0,0,.25-.511Zm46.881.511H45.616a2.974,2.974,0,0,0,0,5.949H54.54a.991.991,0,1,1,0,1.983H11.906a.992.992,0,0,1-.991-.991A2.978,2.978,0,0,0,7.94,56.523H3.974a.991.991,0,0,1,0-1.983H21.821A2.978,2.978,0,0,0,24.8,51.565a.992.992,0,0,1,.991-.991H59.5a.991.991,0,1,1,0,1.983Z" transform="translate(-1 -1)" fill="#455a64"/>
  </g>
</svg>
