<svg id="sabzijat" xmlns="http://www.w3.org/2000/svg" width="69.165" height="68.999" viewBox="0 0 69.165 68.999">
  <g id="Group_13" data-name="Group 13" transform="translate(33.286 46.808)">
    <path id="Path_7" data-name="Path 7" d="M66.224,53.358C65.848,52.935,56.9,43,46.533,43a29.457,29.457,0,0,0-3.83.245c-3.562,3.305-6.9,4.821-9.816,4.945A9.815,9.815,0,0,0,31,54.1c0,2.6,1.121,11.1,15.533,11.1,10.365,0,19.315-9.935,19.691-10.358l.656-.737Z" transform="translate(-31 -43)" fill="#e2f0cb"/>
  </g>
  <g id="Group_14" data-name="Group 14">
    <path id="Path_8" data-name="Path 8" d="M18.243,1.2l-.6-.385-.6.386C16.388,1.618,1,11.72,1,29.868c0,12.413,7.387,17.1,11.791,18.794l.12.1a125.741,125.741,0,0,0,3.623-28.883,2.219,2.219,0,1,1,4.438,0,131.453,131.453,0,0,1-3.72,29.8l.119.134.269.024.083-.007c5.728-.408,16.564-5.108,16.564-19.968C34.286,11.72,18.9,1.618,18.243,1.2Z" transform="translate(-1 -0.812)" fill="#e2f0cb"/>
  </g>
  <path id="Path_9" data-name="Path 9" d="M58.455,59.061l-.178-2.212c-1.181.094-2.312.176-3.412.25A16.327,16.327,0,0,0,57.2,52.759l-2.1-.7c-.351,1.05-1.668,3.952-3.613,5.24-2.087.105-4.02.17-5.817.2a16.125,16.125,0,0,0,2.658-4.733l-2.1-.7c-.384,1.152-1.83,4.292-3.953,5.442a76.969,76.969,0,0,1-19.2-2.441c1.9-1.392,3.831-2.914,5.756-4.509A10.023,10.023,0,0,0,35.556,53.2c3.1,0,7.063-1.431,11.745-6.113,7.328-7.328,6.634-20.684,6.6-21.247l-.058-.985-.985-.058c-.5-.032-11.393-.6-18.908,4.653a27.331,27.331,0,0,1-.194,2.989c5.574-4.991,14.783-5.448,17.9-5.448h.048c0,3.179-.452,13-5.975,18.527-5.65,5.651-11.267,6.95-15.187,3.587,1.65-1.406,3.28-2.843,4.869-4.282L41.371,46.8l.7-2.1-4.785-1.6c.964-.89,1.909-1.772,2.823-2.637l5.7,1.9.7-2.1-4.582-1.528c2.107-2.019,4.032-3.906,5.663-5.5l-1.553-1.584c-1.472,1.445-3.183,3.121-5.054,4.921l.726-5.082-2.2-.314L38.39,39.041q-1.27,1.2-2.605,2.433l-.741-3.706-2.176.436,1,5.019c-1.572,1.424-3.181,2.843-4.808,4.228a7.379,7.379,0,0,1-1.207-2.971A17.652,17.652,0,0,1,25.914,46a9.808,9.808,0,0,0,1.442,2.881,84.624,84.624,0,0,1-11.821,8.46,107.641,107.641,0,0,0,4.587-18.854c2.126-3.545,8.756-7.264,8.824-7.3l-1.078-1.939A40.989,40.989,0,0,0,20.7,34.4c.265-2.073.483-4.14.649-6.174a51.027,51.027,0,0,1,6.608-6l-1.328-1.779a58.865,58.865,0,0,0-5.043,4.309c.1-1.936.161-3.828.161-5.641a3.322,3.322,0,0,0-2.233-3.129A43.624,43.624,0,0,0,18.39,7.758L16.238,8.3A42.165,42.165,0,0,1,17.3,16a3.322,3.322,0,0,0-2.2,3.119c0,.2,0,.406-.006.609a39.356,39.356,0,0,0-4.954-3.768L8.96,17.844a35.208,35.208,0,0,1,6.062,4.926c-.109,2.877-.341,5.837-.673,8.791a42.81,42.81,0,0,0-6.482-4.532L6.788,28.968a38.031,38.031,0,0,1,7.226,5.32C12.268,47.342,8.646,59.7,4.974,63.368a3.328,3.328,0,1,0,4.708,4.707,24.633,24.633,0,0,0,4.629-7.594,48.336,48.336,0,0,0,6.366-3.734A81.666,81.666,0,0,0,43.656,59.73q2.625,0,5.673-.117a9.7,9.7,0,0,1,3.57,4.3l2.059-.825a13.279,13.279,0,0,0-2.326-3.633c1.824-.1,3.757-.232,5.822-.4ZM8.113,66.506a1.125,1.125,0,0,1-1.569,0,1.109,1.109,0,0,1,0-1.569c5.636-5.636,10.77-27.474,10.77-45.815a1.11,1.11,0,0,1,2.219,0c0,21.194-6.019,41.983-11.42,47.384Z" transform="translate(-0.671 -0.051)" fill="#455a64"/>
</svg>
