<svg xmlns="http://www.w3.org/2000/svg" width="61.493" height="70.954" viewBox="0 0 61.493 70.954">
  <g id="shopping-bag_4_" data-name="shopping-bag (4)" transform="translate(-13.653)">
    <g id="Group_3727" data-name="Group 3727" transform="translate(37.319)">
      <g id="Group_3726" data-name="Group 3726">
        <path id="Path_2156" data-name="Path 2156" d="M92.59,0A10.642,10.642,0,0,0,81.963,10.05a1.183,1.183,0,1,0,2.361.13,8.278,8.278,0,0,1,16.539.2,1.183,1.183,0,0,0,1.181,1.146h.037a1.183,1.183,0,0,0,1.145-1.218A10.593,10.593,0,0,0,92.59,0Z" transform="translate(-81.961)" fill="#9b9b9b"/>
      </g>
    </g>
    <g id="Group_3729" data-name="Group 3729" transform="translate(55.602 9.46)">
      <g id="Group_3728" data-name="Group 3728">
        <path id="Path_2157" data-name="Path 2157" d="M148.359,28.371a1.183,1.183,0,0,0-1.177-1.065H135.915a1.182,1.182,0,0,0,0,2.365h10.2l5.676,56.763h-9.461a1.182,1.182,0,0,0,0,2.365H153.1a1.182,1.182,0,0,0,1.177-1.3Z" transform="translate(-134.733 -27.306)" fill="#9b9b9b"/>
      </g>
    </g>
    <g id="Group_3731" data-name="Group 3731" transform="translate(13.653 9.46)">
      <g id="Group_3730" data-name="Group 3730">
        <path id="Path_2158" data-name="Path 2158" d="M63.315,28.371a1.183,1.183,0,0,0-1.177-1.065H20.748a1.183,1.183,0,0,0-1.177,1.065L13.659,87.5a1.182,1.182,0,0,0,1.177,1.3H68.051a1.182,1.182,0,0,0,1.177-1.3ZM16.142,86.434l5.676-56.763h39.25l5.676,56.763Z" transform="translate(-13.653 -27.306)" fill="#9b9b9b"/>
      </g>
    </g>
    <g id="Group_3733" data-name="Group 3733" transform="translate(31.392)">
      <g id="Group_3732" data-name="Group 3732">
        <path id="Path_2159" data-name="Path 2159" d="M75.5,0A10.655,10.655,0,0,0,64.853,10.643V20.1a1.182,1.182,0,0,0,2.365,0V10.643a8.278,8.278,0,1,1,16.556,0V20.1a1.182,1.182,0,0,0,2.365,0V10.643A10.654,10.654,0,0,0,75.5,0Z" transform="translate(-64.853)" fill="#9b9b9b"/>
      </g>
    </g>
  </g>
</svg>
