<svg id="food-and-restaurant_3_" data-name="food-and-restaurant (3)" xmlns="http://www.w3.org/2000/svg" width="61.463" height="61.463" viewBox="0 0 61.463 61.463">
  <path id="Path_50" data-name="Path 50" d="M226.686,286.879a4.916,4.916,0,0,0,.031-7.914v-.021a4.962,4.962,0,0,0-6.735-4.632,4.928,4.928,0,0,0-8.352,0,4.945,4.945,0,0,0-5.8,1.752,4.793,4.793,0,0,0-3.415.585,4.839,4.839,0,0,0-2.48-.68,4.966,4.966,0,0,0-4.926,4.38,4.933,4.933,0,0,0-2.591,6.531Zm0,0" transform="translate(-168.229 -238.3)" fill="#c7ceea"/>
  <path id="Path_51" data-name="Path 51" d="M96,56h1.984v1.984H96Zm0,0" transform="translate(-84.104 -49.057)" fill="#455a64"/>
  <path id="Path_52" data-name="Path 52" d="M192,40h1.984v1.984H192Zm0,0" transform="translate(-168.208 -35.04)" fill="#455a64"/>
  <path id="Path_53" data-name="Path 53" d="M280,136h1.984v1.984H280Zm0,0" transform="translate(-245.304 -119.147)" fill="#455a64"/>
  <path id="Path_54" data-name="Path 54" d="M64,112h1.984v1.984H64Zm0,0" transform="translate(-56.065 -98.121)" fill="#455a64"/>
  <path id="Path_55" data-name="Path 55" d="M40,224h1.984v1.984H40Zm0,0" transform="translate(-35.04 -196.243)" fill="#455a64"/>
  <path id="Path_56" data-name="Path 56" d="M264,224h1.984v1.984H264Zm0,0" transform="translate(-231.286 -196.243)" fill="#455a64"/>
  <path id="Path_57" data-name="Path 57" d="M91.524,72a5.957,5.957,0,0,0-5.951,5.951,4.949,4.949,0,0,1-3.741,4.8l.487,1.923a6.931,6.931,0,0,0,5.237-6.724,3.972,3.972,0,0,1,3.968-3.968Zm0,0" transform="translate(-71.693 -63.073)" fill="#455a64"/>
  <path id="Path_58" data-name="Path 58" d="M216,112h1.984v1.984H216Zm0,0" transform="translate(-189.234 -98.121)" fill="#455a64"/>
  <path id="Path_59" data-name="Path 59" d="M152,152h1.984v1.984H152Zm0,0" transform="translate(-133.165 -133.165)" fill="#455a64"/>
  <path id="Path_60" data-name="Path 60" d="M112,208h1.984v1.984H112Zm0,0" transform="translate(-98.121 -182.226)" fill="#455a64"/>
  <path id="Path_61" data-name="Path 61" d="M25.718,47.585a31.705,31.705,0,0,1-.565-12.47,4.918,4.918,0,0,0,7.608-.505,5.232,5.232,0,0,0,.944.088,5.954,5.954,0,0,0,5.948-5.948,5.68,5.68,0,0,0-.288-1.783A9.908,9.908,0,0,0,33.706,8.922h-.049a9.9,9.9,0,0,0-17.164-5.7,5.927,5.927,0,0,0-9.553,4.71c0,.1,0,.2.008.294A6.981,6.981,0,0,0,1.983,14.87a6.908,6.908,0,0,0,.671,2.977A5.936,5.936,0,0,0,0,22.8a5.848,5.848,0,0,0,.814,2.974A5.848,5.848,0,0,0,0,28.749,5.954,5.954,0,0,0,5.948,34.7a5.232,5.232,0,0,0,.944-.088A4.9,4.9,0,0,0,10.9,36.68a4.961,4.961,0,0,0,4.865-4.041c.083-.013.167-.022.249-.037l.21,1.053a32.282,32.282,0,0,1,.624,6.311,32.152,32.152,0,0,1-1.238,8.841l-.64,2.242A2.73,2.73,0,0,0,17.6,54.524H21.81a6.948,6.948,0,0,0,6.939,6.939H54.524a6.948,6.948,0,0,0,6.939-6.939V47.585ZM17.6,52.541a.748.748,0,0,1-.747-.747.757.757,0,0,1,.029-.206l.639-2.239a34.111,34.111,0,0,0,1.315-9.385,34.27,34.27,0,0,0-.663-6.7L17.9,31.877a5.942,5.942,0,0,0,2.923-5.111H18.836a3.965,3.965,0,0,1-7.931,0H8.922A5.957,5.957,0,0,0,13.731,32.6a2.951,2.951,0,0,1-5.479.432l-.372-.75-.8.241a3.915,3.915,0,0,1-1.131.188,3.969,3.969,0,0,1-3.965-3.965A3.928,3.928,0,0,1,2.8,26.373l.451-.6-.451-.6A3.938,3.938,0,0,1,4.4,19.147l1.119-.473-.688-1a4.927,4.927,0,0,1-.87-2.8,4.978,4.978,0,0,1,4.23-4.9l1.05-.155L9.019,8.782a3.946,3.946,0,0,1,3.868-4.817,3.9,3.9,0,0,1,2.958,1.355l.817.925.728-1A7.924,7.924,0,0,1,31.724,9.868l0,1.209,1.1-.12a8.128,8.128,0,0,1,.886-.053,7.926,7.926,0,0,1,3.936,14.809l-.813.466.421.838a3.851,3.851,0,0,1,.422,1.731,3.969,3.969,0,0,1-3.965,3.965,3.915,3.915,0,0,1-1.131-.188l-.8-.24-.372.75a2.969,2.969,0,1,1-2.739-4.292l.992.039.165-.82a3.68,3.68,0,0,1,.336-.944l.425-.839-.816-.469a7.957,7.957,0,0,1-3.942-5.994l-1.971.219a9.939,9.939,0,0,0,4.022,6.908,4.958,4.958,0,0,0-4.067,4.7l-.344,1.719a34.165,34.165,0,0,0,.652,16.085l.638,2.236a.757.757,0,0,1,.03.209.748.748,0,0,1-.747.747Zm41.88,1.983a4.963,4.963,0,0,1-4.957,4.957H28.749a4.963,4.963,0,0,1-4.957-4.957h.244a2.731,2.731,0,0,0,2.625-3.481l-.421-1.476H59.481Zm0,0" fill="#455a64"/>
  <path id="Path_62" data-name="Path 62" d="M295.844,345.672a4.8,4.8,0,0,1-1.984-.429,4.866,4.866,0,0,1-4.464-.252,4.848,4.848,0,0,1-4.229.35l.7-1.856a2.846,2.846,0,0,0,2.9-.471l.623-.5.623.5a2.9,2.9,0,0,0,3.34.258l.5-.291.5.291a2.939,2.939,0,0,0,1.487.415Zm0,0" transform="translate(-249.835 -300.07)" fill="#455a64"/>
  <path id="Path_63" data-name="Path 63" d="M424,352h1.984v1.984H424Zm0,0" transform="translate(-371.464 -308.382)" fill="#455a64"/>
  <path id="Path_64" data-name="Path 64" d="M376,304h1.984v1.984H376Zm0,0" transform="translate(-329.408 -266.33)" fill="#455a64"/>
  <path id="Path_65" data-name="Path 65" d="M248,336h1.984v1.984H248Zm0,0" transform="translate(-217.269 -294.364)" fill="#455a64"/>
</svg>
